ffmpeg version 3.4.8-0ubuntu0.2 Copyright (c) 2000-2020 the FFmpeg developers
  built with gcc 7 (Ubuntu 7.5.0-3ubuntu1~18.04)
  configuration: --prefix=/usr --extra-version=0ubuntu0.2 --toolchain=hardened --libdir=/usr/lib/x86_64-linux-gnu --incdir=/usr/include/x86_64-linux-gnu --enable-gpl --disable-stripping --enable-avresample --enable-avisynth --enable-gnutls --enable-ladspa --enable-libass --enable-libbluray --enable-libbs2b --enable-libcaca --enable-libcdio --enable-libflite --enable-libfontconfig --enable-libfreetype --enable-libfribidi --enable-libgme --enable-libgsm --enable-libmp3lame --enable-libmysofa --enable-libopenjpeg --enable-libopenmpt --enable-libopus --enable-libpulse --enable-librubberband --enable-librsvg --enable-libshine --enable-libsnappy --enable-libsoxr --enable-libspeex --enable-libssh --enable-libtheora --enable-libtwolame --enable-libvorbis --enable-libvpx --enable-libwavpack --enable-libwebp --enable-libx265 --enable-libxml2 --enable-libxvid --enable-libzmq --enable-libzvbi --enable-omx --enable-openal --enable-opengl --enable-sdl2 --enable-libdc1394 --enable-libdrm --enable-libiec61883 --enable-chromaprint --enable-frei0r --enable-libopencv --enable-libx264 --enable-shared
  libavutil      55. 78.100 / 55. 78.100
  libavcodec     57.107.100 / 57.107.100
  libavformat    57. 83.100 / 57. 83.100
  libavdevice    57. 10.100 / 57. 10.100
  libavfilter     6.107.100 /  6.107.100
  libavresample   3.  7.  0 /  3.  7.  0
  libswscale      4.  8.100 /  4.  8.100
  libswresample   2.  9.100 /  2.  9.100
  libpostproc    54.  7.100 / 54.  7.100
[rawvideo @ 0x559189fcda20] Estimating duration from bitrate, this may be inaccurate
Input #0, rawvideo, from '../../SVC-Encoder-20220109T061506Z-001/SVC-Encoder/Dataset/RollerCoaster/ERP_8x8/tile_yuv/Tile_32_480x240.yuv':
  Duration: 00:00:10.00, start: 0.000000, bitrate: 41472 kb/s
    Stream #0:0: Video: rawvideo (I420 / 0x30323449), yuv420p, 480x240, 41472 kb/s, 30 tbr, 30 tbn, 30 tbc
Stream mapping:
  Stream #0:0 -> #0:0 (rawvideo (native) -> h264 (libx264))
Press [q] to stop, [?] for help
[libx264 @ 0x559189fdac60] using cpu capabilities: MMX2 SSE2Fast LZCNT SSSE3 SSE4.2 AVX
[libx264 @ 0x559189fdac60] profile High, level 2.1
Output #0, rawvideo, to 'RollerCoaster_Tile_32_480x240_x264_QP_28.h264':
  Metadata:
    encoder         : Lavf57.83.100
    Stream #0:0: Video: h264 (libx264), yuv420p, 480x240, q=-1--1, 30 fps, 30 tbn, 30 tbc
    Metadata:
      encoder         : Lavc57.107.100 libx264
    Side data:
      cpb: bitrate max/min/avg: 0/0/0 buffer size: 0 vbv_delay: -1
frame=  135 fps=0.0 q=34.0 PSNR=Y:nan U:nan V:nan *:nan size=     101kB time=00:00:03.06 bitrate= 271.1kbits/s speed=6.13x    frame=  259 fps=259 q=34.0 PSNR=Y:nan U:nan V:nan *:nan size=     226kB time=00:00:07.20 bitrate= 257.5kbits/s speed=7.19x    frame=  300 fps=231 q=34.0 LPSNR=Y:inf U:inf V:inf *:inf size=     310kB time=00:00:09.93 bitrate= 255.9kbits/s speed=7.64x    
video:310kB audio:0kB subtitle:0kB other streams:0kB global headers:0kB muxing overhead: 0.000000%
[libx264 @ 0x559189fdac60] frame I:2     Avg QP:25.85  size: 14620  PSNR Mean Y:40.58 U:45.90 V:47.01 Avg:41.81 Global:41.81
[libx264 @ 0x559189fdac60] frame P:76    Avg QP:27.66  size:  2666  PSNR Mean Y:38.09 U:45.76 V:46.72 Avg:39.53 Global:39.47
[libx264 @ 0x559189fdac60] frame B:222   Avg QP:33.45  size:   387  PSNR Mean Y:37.63 U:45.63 V:46.60 Avg:39.09 Global:39.06
[libx264 @ 0x559189fdac60] consecutive B-frames:  1.0%  0.7%  1.0% 97.3%
[libx264 @ 0x559189fdac60] mb I  I16..4:  2.7% 73.8% 23.6%
[libx264 @ 0x559189fdac60] mb P  I16..4:  0.2%  1.6%  0.4%  P16..4: 42.7% 25.4% 11.8%  0.0%  0.0%    skip:17.8%
[libx264 @ 0x559189fdac60] mb B  I16..4:  0.0%  0.1%  0.0%  B16..8: 42.8%  3.9%  0.4%  direct: 0.3%  skip:52.5%  L0:36.9% L1:58.8% BI: 4.3%
[libx264 @ 0x559189fdac60] 8x8 transform intra:72.2% inter:65.1%
[libx264 @ 0x559189fdac60] coded y,uvDC,uvAC intra: 83.8% 76.8% 29.8% inter: 9.9% 5.9% 0.0%
[libx264 @ 0x559189fdac60] i16 v,h,dc,p:  5% 29% 19% 46%
[libx264 @ 0x559189fdac60] i8 v,h,dc,ddl,ddr,vr,hd,vl,hu:  9% 18% 12%  6% 12%  8% 10% 11% 13%
[libx264 @ 0x559189fdac60] i4 v,h,dc,ddl,ddr,vr,hd,vl,hu: 15% 13% 15%  6% 14% 11%  8% 11%  7%
[libx264 @ 0x559189fdac60] i8c dc,h,v,p: 40% 26% 16% 18%
[libx264 @ 0x559189fdac60] Weighted P-Frames: Y:0.0% UV:0.0%
[libx264 @ 0x559189fdac60] ref P L0: 61.4% 18.5% 16.5%  3.6%
[libx264 @ 0x559189fdac60] ref B L0: 90.9%  7.6%  1.5%
[libx264 @ 0x559189fdac60] ref B L1: 93.2%  6.8%
[libx264 @ 0x559189fdac60] PSNR Mean Y:37.768 U:45.663 V:46.634 Avg:39.221 Global:39.175 kb/s:254.24
